<svg width="25" height="24" viewBox="0 0 25 24" fill="none" xmlns="http://www.w3.org/2000/svg">
<path d="M12.4425 0H12.3867C5.62552 0 0.144531 5.36035 0.144531 11.9727V12.0273C0.144531 18.6397 5.62552 24 12.3867 24H12.4425C19.2037 24 24.6847 18.6397 24.6847 12.0273V11.9727C24.6847 5.36035 19.2037 0 12.4425 0Z" fill="black"/>
<path d="M16.2103 4.88281H8.61694C6.51912 4.88281 4.8125 6.55187 4.8125 8.60351V15.3975C4.8125 17.4491 6.51912 19.1182 8.61694 19.1182H16.2103C18.3082 19.1182 20.0148 17.4491 20.0148 15.3975V8.60351C20.0148 6.55187 18.3082 4.88281 16.2103 4.88281ZM6.15459 8.60351C6.15459 7.27583 7.25938 6.19536 8.61694 6.19536H16.2103C17.5679 6.19536 18.6727 7.27583 18.6727 8.60351V15.3975C18.6727 16.7252 17.5679 17.8056 16.2103 17.8056H8.61694C7.25938 17.8056 6.15459 16.7252 6.15459 15.3975V8.60351Z" fill="#FAFAFB"/>
<path d="M12.4138 15.4606C14.3646 15.4606 15.9525 13.9084 15.9525 11.9997C15.9525 10.091 14.3654 8.53882 12.4138 8.53882C10.4621 8.53882 8.875 10.091 8.875 11.9997C8.875 13.9084 10.4621 15.4606 12.4138 15.4606ZM12.4138 9.8522C13.6252 9.8522 14.6105 10.8158 14.6105 12.0005C14.6105 13.1853 13.6252 14.1489 12.4138 14.1489C11.2024 14.1489 10.2171 13.1853 10.2171 12.0005C10.2171 10.8158 11.2024 9.8522 12.4138 9.8522Z" fill="#FAFAFB"/>
<path d="M16.2816 9.09789C16.8069 9.09789 17.2351 8.67999 17.2351 8.1654C17.2351 7.65081 16.8078 7.23291 16.2816 7.23291C15.7554 7.23291 15.3281 7.65081 15.3281 8.1654C15.3281 8.67999 15.7554 9.09789 16.2816 9.09789Z" fill="#FAFAFB"/>
</svg>
