<svg width="112" height="20" viewBox="0 0 112 20" fill="none" xmlns="http://www.w3.org/2000/svg">
<path d="M23.8965 0C30.3287 0 33.4326 4.48598 33.4326 9.68224V19.4393H26.7012V10.8411C26.7012 8.48598 25.8411 6.54206 23.3729 6.54206C20.9047 6.54206 20.082 8.48598 20.082 10.8411V19.4393H13.3506V10.8411C13.3506 8.48598 12.5279 6.54206 10.0597 6.54206C7.59152 6.54206 6.73139 8.48598 6.73139 10.8411V19.4393H0V9.68224C0 4.48598 3.10392 0 9.53614 0C13.0514 0 15.5944 1.38318 16.7537 3.66355C17.9878 1.38318 20.6803 0 23.8965 0Z" fill="black"/>
<path d="M46.7137 20C40.8798 20 36.4296 15.514 36.4296 10.0561C36.4296 4.63551 40.8798 0.149533 46.7137 0.149533C52.5475 0.149533 56.9977 4.63551 56.9977 10.0561C56.9977 15.514 52.5475 20 46.7137 20ZM46.7137 13.6822C48.8453 13.6822 50.2663 12.0374 50.2663 10.0935C50.2663 8.11215 48.8453 6.46729 46.7137 6.46729C44.582 6.46729 43.161 8.11215 43.161 10.0935C43.161 12.0374 44.582 13.6822 46.7137 13.6822Z" fill="black"/>
<path d="M70.1371 6.72897C67.6689 6.72897 66.734 8.71028 66.734 11.0654V19.4393H60.0026V10.243C60.0026 4.74766 63.2187 0.186916 70.1371 0.186916C77.0555 0.186916 80.2716 4.74766 80.2716 10.243V19.4393H73.5402V11.0654C73.5402 8.71028 72.6053 6.72897 70.1371 6.72897Z" fill="black"/>
<path d="M100.9 19.4393H89.0075C85.4174 19.4393 83.6598 17.4953 83.6224 15.2523C83.585 13.3084 84.3329 11.8131 86.2401 10.6916L93.5325 6.35514H84.3703V0.747665H95.7763C99.3664 0.747665 101.124 2.69159 101.161 4.93458C101.199 6.8785 100.451 8.37383 98.5436 9.49533L91.2513 13.8318H100.9V19.4393Z" fill="black"/>
<path d="M105.269 0.747665H112V19.4393H105.269V0.747665Z" fill="black"/>
</svg>
