<svg width="26" height="24" viewBox="0 0 26 24" fill="none" xmlns="http://www.w3.org/2000/svg">
<path d="M25.6818 12.0004C25.6818 18.0612 21.0022 23.0717 14.923 23.8848C14.3546 23.9605 13.773 24 13.1827 24C12.5013 24 11.8322 23.9479 11.1805 23.847C5.22921 22.9271 0.683594 17.9729 0.683594 12.0004C0.683594 5.37294 6.28022 0 13.1836 0C20.087 0 25.6836 5.37294 25.6836 12.0004H25.6818Z" fill="black"/>
<path d="M5.75466 5.29297L11.5194 12.6923L5.71875 18.7085H7.02463L12.1036 13.4415L16.2069 18.7085H20.6501L14.5612 10.8929L19.9608 5.29297H18.6549L13.9779 10.1438L10.1987 5.29297H5.75553H5.75466ZM7.6745 6.21621H9.71521L18.7285 17.7853H16.6878L7.6745 6.21621Z" fill="#FAFAFB"/>
</svg>
