<svg width="25" height="24" viewBox="0 0 25 24" fill="none" xmlns="http://www.w3.org/2000/svg">
<path d="M12.7973 0H12.7423C6.08244 0 0.683594 5.36035 0.683594 11.9727V12.0273C0.683594 18.6397 6.08244 24 12.7423 24H12.7973C19.4571 24 24.856 18.6397 24.856 12.0273V11.9727C24.856 5.36035 19.4571 0 12.7973 0Z" fill="black"/>
<path d="M15.1231 15.5102C12.0295 15.5102 9.51257 13.0104 9.51172 9.93887C9.51257 9.16025 10.1511 8.5271 10.9336 8.5271C11.0141 8.5271 11.0937 8.53383 11.1699 8.54728C11.3376 8.57503 11.4968 8.63136 11.6433 8.71629C11.6645 8.7289 11.6789 8.74908 11.6823 8.77263L12.0092 10.8184C12.0134 10.8419 12.0058 10.8663 11.9897 10.884C11.8093 11.0824 11.5789 11.2253 11.3223 11.2968L11.1987 11.3313L11.2453 11.4498C11.667 12.516 12.5258 13.3678 13.6004 13.7882L13.7198 13.8353L13.7546 13.7125C13.8265 13.4578 13.9705 13.2291 14.1704 13.05C14.1848 13.0365 14.2043 13.0298 14.2237 13.0298C14.228 13.0298 14.2322 13.0298 14.2373 13.0306L16.2977 13.3552C16.3223 13.3594 16.3426 13.3728 16.3553 13.3939C16.44 13.5393 16.4968 13.6982 16.5255 13.8647C16.5391 13.9387 16.545 14.0169 16.545 14.0985C16.545 14.8763 15.9073 15.5094 15.1231 15.5102Z" fill="#FAFAFB"/>
<path d="M20.6108 11.3262C20.444 9.45445 19.5802 7.71812 18.1786 6.43753C16.7686 5.14936 14.9393 4.4397 13.0262 4.4397C8.82742 4.4397 5.41113 7.83163 5.41113 12.0005C5.41113 13.3997 5.79984 14.7626 6.53578 15.9499L4.89453 19.5571L10.1494 19.0013C11.0632 19.373 12.0303 19.5613 13.0254 19.5613C13.2871 19.5613 13.5555 19.5478 13.8248 19.5201C14.062 19.4949 14.3016 19.4579 14.5371 19.4108C18.0533 18.7053 20.6202 15.6069 20.6405 12.0409V12.0005C20.6405 11.7735 20.6303 11.5464 20.61 11.327L20.6108 11.3262ZM10.3518 17.418L7.44448 17.7258L8.31253 15.8162L8.13892 15.585C8.12621 15.5682 8.11351 15.5514 8.09911 15.532C7.3454 14.4986 6.94736 13.2777 6.94736 12.0013C6.94736 8.67331 9.6743 5.96582 13.0262 5.96582C16.1664 5.96582 18.8282 8.39836 19.0848 11.5036C19.0983 11.6701 19.1059 11.8374 19.1059 12.0022C19.1059 12.0493 19.1051 12.0955 19.1043 12.1451C19.0399 14.9291 17.0811 17.2936 14.3406 17.8956C14.1314 17.9419 13.9171 17.9772 13.7037 17.9999C13.4818 18.0251 13.254 18.0377 13.0279 18.0377C12.2225 18.0377 11.44 17.883 10.7007 17.5769C10.6186 17.5441 10.5381 17.5088 10.4627 17.4727L10.3526 17.4197L10.3518 17.418Z" fill="#FAFAFB"/>
</svg>
